<mxfile host="drawio-plugin" modified="2021-03-21T19:56:50.213Z" agent="5.0 (X11; Linux x86_64) AppleWebKit/537.36 (KHTML, like Gecko) Chrome/84.0.4147.105 Safari/537.36" etag="s8tNZ6guIVEXC9Nt8Md9" version="13.7.9" type="embed"><diagram id="SDV3DfAYb3ARsRAgTjfZ" name="Page-1"><mxGraphModel dx="3197" dy="1137" grid="1" gridSize="10" guides="1" tooltips="1" connect="1" arrows="1" fold="1" page="1" pageScale="1" pageWidth="850" pageHeight="1100" math="0" shadow="0"><root><mxCell id="0"/><mxCell id="1" parent="0"/><mxCell id="9" style="edgeStyle=elbowEdgeStyle;rounded=0;orthogonalLoop=1;jettySize=auto;html=1;endArrow=classicThin;endFill=1;fontFamily=Fira Code;" parent="1" source="2" target="6" edge="1"><mxGeometry relative="1" as="geometry"/></mxCell><mxCell id="24" value="&lt;font color=&quot;#ffffff&quot;&gt;depends&lt;/font&gt;" style="edgeLabel;html=1;align=center;verticalAlign=middle;resizable=0;points=[];fontSize=8;fontColor=#1A1A1A;" parent="9" vertex="1" connectable="0"><mxGeometry x="-0.7667" relative="1" as="geometry"><mxPoint as="offset"/></mxGeometry></mxCell><mxCell id="2" value="Terminal&lt;br&gt;&lt;font style=&quot;font-size: 7px&quot;&gt;API for blt.terminal&lt;/font&gt;" style="rounded=0;whiteSpace=wrap;html=1;fontFamily=Fira Code;" parent="1" vertex="1"><mxGeometry x="420" y="500" width="160" height="40" as="geometry"/></mxCell><mxCell id="11" style="edgeStyle=elbowEdgeStyle;rounded=0;orthogonalLoop=1;jettySize=auto;html=1;endArrow=classicThin;endFill=1;fontFamily=Fira Code;" parent="1" source="3" target="10" edge="1"><mxGeometry relative="1" as="geometry"/></mxCell><mxCell id="19" value="&lt;font color=&quot;#ffffff&quot;&gt;depends&lt;/font&gt;" style="edgeLabel;html=1;align=center;verticalAlign=middle;resizable=0;points=[];fontSize=8;fontColor=#1A1A1A;" parent="11" vertex="1" connectable="0"><mxGeometry y="-4" relative="1" as="geometry"><mxPoint x="4" y="-4" as="offset"/></mxGeometry></mxCell><mxCell id="13" style="edgeStyle=elbowEdgeStyle;rounded=0;orthogonalLoop=1;jettySize=auto;html=1;endArrow=classicThin;endFill=1;fontFamily=Fira Code;" parent="1" source="3" target="6" edge="1"><mxGeometry relative="1" as="geometry"/></mxCell><mxCell id="23" value="&lt;font color=&quot;#ffffff&quot;&gt;depends&lt;/font&gt;" style="edgeLabel;html=1;align=center;verticalAlign=middle;resizable=0;points=[];fontSize=8;fontColor=#1A1A1A;" parent="13" vertex="1" connectable="0"><mxGeometry x="-0.7082" relative="1" as="geometry"><mxPoint as="offset"/></mxGeometry></mxCell><mxCell id="3" value="Loop&lt;br&gt;&lt;font style=&quot;font-size: 7px&quot;&gt;Director superclass&lt;/font&gt;" style="rounded=0;whiteSpace=wrap;html=1;fontFamily=Fira Code;" parent="1" vertex="1"><mxGeometry x="420" y="180" width="160" height="40" as="geometry"/></mxCell><mxCell id="14" style="edgeStyle=elbowEdgeStyle;rounded=0;orthogonalLoop=1;jettySize=auto;html=1;endArrow=block;endFill=0;fontFamily=Fira Code;" parent="1" source="4" target="2" edge="1"><mxGeometry relative="1" as="geometry"/></mxCell><mxCell id="20" value="&lt;font color=&quot;#ffffff&quot;&gt;extends&lt;/font&gt;" style="edgeLabel;html=1;align=center;verticalAlign=middle;resizable=0;points=[];fontSize=8;fontColor=#1A1A1A;" parent="14" vertex="1" connectable="0"><mxGeometry y="12" relative="1" as="geometry"><mxPoint x="-12" y="-12" as="offset"/></mxGeometry></mxCell><mxCell id="15" style="edgeStyle=elbowEdgeStyle;rounded=0;orthogonalLoop=1;jettySize=auto;html=1;endArrow=classicThin;endFill=1;fontFamily=Fira Code;" parent="1" source="4" target="10" edge="1"><mxGeometry relative="1" as="geometry"/></mxCell><mxCell id="21" value="&lt;font color=&quot;#ffffff&quot;&gt;depends&lt;/font&gt;" style="edgeLabel;html=1;align=center;verticalAlign=middle;resizable=0;points=[];fontSize=8;fontColor=#1A1A1A;" parent="15" vertex="1" connectable="0"><mxGeometry y="13" relative="1" as="geometry"><mxPoint x="13" y="13" as="offset"/></mxGeometry></mxCell><mxCell id="4" value="Context&lt;br&gt;&lt;font style=&quot;font-size: 7px&quot;&gt;Acts like Terminal but with&lt;br&gt;offsets&amp;nbsp;for position-related calls&lt;/font&gt;" style="rounded=0;whiteSpace=wrap;html=1;fontFamily=Fira Code;" parent="1" vertex="1"><mxGeometry x="420" y="380" width="160" height="50" as="geometry"/></mxCell><mxCell id="5" value="blt" style="shape=folder;fontStyle=1;spacingTop=10;tabWidth=40;tabHeight=10;tabPosition=left;html=1;fontFamily=Fira Code;fillColor=#0050ef;strokeColor=#001DBC;fontColor=#ffffff;" parent="1" vertex="1"><mxGeometry x="80" y="270" width="80" height="50" as="geometry"/></mxCell><mxCell id="8" value="" style="edgeStyle=elbowEdgeStyle;rounded=0;orthogonalLoop=1;jettySize=auto;html=1;endArrow=diamond;endFill=1;fontFamily=Fira Code;fillColor=#1ba1e2;strokeColor=#006EAF;" parent="1" source="6" target="5" edge="1"><mxGeometry relative="1" as="geometry"/></mxCell><mxCell id="6" value="terminal" style="rounded=0;whiteSpace=wrap;html=1;fontFamily=Fira Code;fillColor=#0050ef;strokeColor=#001DBC;fontColor=#ffffff;" parent="1" vertex="1"><mxGeometry x="190" y="280" width="80" height="30" as="geometry"/></mxCell><mxCell id="12" style="edgeStyle=elbowEdgeStyle;rounded=0;orthogonalLoop=1;jettySize=auto;html=1;endArrow=classicThin;endFill=1;fontFamily=Fira Code;" parent="1" source="10" target="6" edge="1"><mxGeometry relative="1" as="geometry"/></mxCell><mxCell id="25" value="&lt;font color=&quot;#ffffff&quot;&gt;depends&lt;/font&gt;" style="edgeLabel;html=1;align=center;verticalAlign=middle;resizable=0;points=[];fontSize=8;fontColor=#1A1A1A;" parent="12" vertex="1" connectable="0"><mxGeometry x="-0.5571" y="-1" relative="1" as="geometry"><mxPoint as="offset"/></mxGeometry></mxCell><mxCell id="10" value="State&lt;br&gt;&lt;font style=&quot;font-size: 7px&quot;&gt;Proxy object that maps to all &lt;br&gt;BLT state and event constants&lt;/font&gt;" style="rounded=0;whiteSpace=wrap;html=1;fontFamily=Fira Code;" parent="1" vertex="1"><mxGeometry x="420" y="270" width="160" height="50" as="geometry"/></mxCell><mxCell id="27" style="edgeStyle=elbowEdgeStyle;rounded=0;orthogonalLoop=1;jettySize=auto;html=1;endArrow=block;endFill=0;strokeWidth=1;fontSize=8;fontColor=#1A1A1A;" parent="1" source="26" target="3" edge="1"><mxGeometry relative="1" as="geometry"/></mxCell><mxCell id="30" value="&lt;font color=&quot;#ffffff&quot;&gt;extends&lt;/font&gt;" style="edgeLabel;html=1;align=center;verticalAlign=middle;resizable=0;points=[];fontSize=8;fontColor=#1A1A1A;" parent="27" vertex="1" connectable="0"><mxGeometry x="-0.0038" y="8" relative="1" as="geometry"><mxPoint x="8" y="-9" as="offset"/></mxGeometry></mxCell><mxCell id="28" style="edgeStyle=elbowEdgeStyle;rounded=0;orthogonalLoop=1;jettySize=auto;html=1;endArrow=classicThin;endFill=1;strokeWidth=1;fontSize=8;fontColor=#1A1A1A;exitX=0.5;exitY=1;exitDx=0;exitDy=0;" parent="1" source="26" target="4" edge="1"><mxGeometry relative="1" as="geometry"><Array as="points"><mxPoint x="760" y="310"/></Array></mxGeometry></mxCell><mxCell id="29" value="&lt;font color=&quot;#ffffff&quot;&gt;depends&lt;/font&gt;" style="edgeLabel;html=1;align=center;verticalAlign=middle;resizable=0;points=[];fontSize=8;fontColor=#1A1A1A;" parent="28" vertex="1" connectable="0"><mxGeometry x="-0.7748" relative="1" as="geometry"><mxPoint as="offset"/></mxGeometry></mxCell><mxCell id="64" style="edgeStyle=elbowEdgeStyle;rounded=0;orthogonalLoop=1;jettySize=auto;html=1;dashed=1;endArrow=none;endFill=0;strokeWidth=1;fontSize=8;fontColor=#1A1A1A;" parent="1" source="26" target="31" edge="1"><mxGeometry relative="1" as="geometry"><Array as="points"><mxPoint x="920" y="210"/></Array></mxGeometry></mxCell><mxCell id="68" style="edgeStyle=elbowEdgeStyle;rounded=0;sketch=1;orthogonalLoop=1;jettySize=auto;html=1;endArrow=classicThin;endFill=1;fillColor=#60a917;strokeColor=#2D7600;" edge="1" parent="1" source="71" target="65"><mxGeometry relative="1" as="geometry"/></mxCell><mxCell id="26" value="Director" style="rounded=0;whiteSpace=wrap;html=1;fontFamily=Fira Code;" parent="1" vertex="1"><mxGeometry x="680" y="180" width="160" height="40" as="geometry"/></mxCell><mxCell id="32" style="edgeStyle=elbowEdgeStyle;rounded=0;orthogonalLoop=1;jettySize=auto;html=1;endArrow=classicThin;endFill=1;strokeWidth=1;fontSize=8;fontColor=#1A1A1A;dashed=1;" parent="1" source="31" target="26" edge="1"><mxGeometry relative="1" as="geometry"><Array as="points"><mxPoint x="920" y="190"/></Array></mxGeometry></mxCell><mxCell id="33" value="&lt;font color=&quot;#ffffff&quot;&gt;weakref&lt;/font&gt;" style="edgeLabel;html=1;align=center;verticalAlign=middle;resizable=0;points=[];fontSize=8;fontColor=#1A1A1A;" parent="32" vertex="1" connectable="0"><mxGeometry x="0.0006" y="20" relative="1" as="geometry"><mxPoint x="20" y="-21" as="offset"/></mxGeometry></mxCell><mxCell id="31" value="Scene" style="rounded=0;whiteSpace=wrap;html=1;fontFamily=Fira Code;" parent="1" vertex="1"><mxGeometry x="1000" y="180" width="160" height="40" as="geometry"/></mxCell><mxCell id="35" style="edgeStyle=elbowEdgeStyle;rounded=0;orthogonalLoop=1;jettySize=auto;html=1;endArrow=block;endFill=0;strokeWidth=1;fontSize=8;fontColor=#1A1A1A;" parent="1" source="34" target="31" edge="1"><mxGeometry relative="1" as="geometry"/></mxCell><mxCell id="36" value="&lt;font color=&quot;#ffffff&quot;&gt;extends&lt;/font&gt;" style="edgeLabel;html=1;align=center;verticalAlign=middle;resizable=0;points=[];fontSize=8;fontColor=#1A1A1A;" parent="35" vertex="1" connectable="0"><mxGeometry y="-9" relative="1" as="geometry"><mxPoint x="-9" y="9" as="offset"/></mxGeometry></mxCell><mxCell id="38" style="edgeStyle=elbowEdgeStyle;rounded=0;orthogonalLoop=1;jettySize=auto;html=1;endArrow=none;endFill=0;strokeWidth=1;fontSize=8;fontColor=#1A1A1A;dashed=1;" parent="1" source="34" target="37" edge="1"><mxGeometry relative="1" as="geometry"/></mxCell><mxCell id="34" value="UIScene" style="rounded=0;whiteSpace=wrap;html=1;fontFamily=Fira Code;" parent="1" vertex="1"><mxGeometry x="1000" y="300" width="160" height="40" as="geometry"/></mxCell><mxCell id="40" value="" style="edgeStyle=elbowEdgeStyle;rounded=0;orthogonalLoop=1;jettySize=auto;html=1;endArrow=classicThin;endFill=1;strokeWidth=1;fontSize=8;fontColor=#1A1A1A;" parent="1" source="37" target="39" edge="1"><mxGeometry relative="1" as="geometry"/></mxCell><mxCell id="37" value="View" style="rounded=0;whiteSpace=wrap;html=1;fontFamily=Fira Code;" parent="1" vertex="1"><mxGeometry x="1000" y="380" width="160" height="40" as="geometry"/></mxCell><mxCell id="39" value="LayoutOptions" style="rounded=0;whiteSpace=wrap;html=1;fontFamily=Fira Code;" parent="1" vertex="1"><mxGeometry x="1000" y="460" width="160" height="40" as="geometry"/></mxCell><mxCell id="42" value="" style="edgeStyle=elbowEdgeStyle;rounded=0;orthogonalLoop=1;jettySize=auto;html=1;endArrow=block;endFill=0;strokeWidth=1;fontSize=8;fontColor=#1A1A1A;" parent="1" source="41" target="37" edge="1"><mxGeometry relative="1" as="geometry"/></mxCell><mxCell id="41" value="FirstResponderContainerView" style="rounded=0;whiteSpace=wrap;html=1;fontFamily=Fira Code;" parent="1" vertex="1"><mxGeometry x="1280" y="220" width="240" height="40" as="geometry"/></mxCell><mxCell id="45" value="" style="edgeStyle=elbowEdgeStyle;rounded=0;orthogonalLoop=1;jettySize=auto;html=1;endArrow=block;endFill=0;strokeWidth=1;fontSize=8;fontColor=#1A1A1A;" parent="1" source="44" target="41" edge="1"><mxGeometry relative="1" as="geometry"/></mxCell><mxCell id="44" value="SettingsListView" style="rounded=0;whiteSpace=wrap;html=1;fontFamily=Fira Code;" parent="1" vertex="1"><mxGeometry x="1600" y="180" width="200" height="40" as="geometry"/></mxCell><mxCell id="47" style="edgeStyle=elbowEdgeStyle;rounded=0;orthogonalLoop=1;jettySize=auto;html=1;endArrow=block;endFill=0;strokeWidth=1;fontSize=8;fontColor=#1A1A1A;" parent="1" source="46" target="41" edge="1"><mxGeometry relative="1" as="geometry"/></mxCell><mxCell id="46" value="KeyAssignedListView" style="rounded=0;whiteSpace=wrap;html=1;fontFamily=Fira Code;" parent="1" vertex="1"><mxGeometry x="1600" y="260" width="200" height="40" as="geometry"/></mxCell><mxCell id="49" style="edgeStyle=elbowEdgeStyle;rounded=0;orthogonalLoop=1;jettySize=auto;html=1;endArrow=block;endFill=0;strokeWidth=1;fontSize=8;fontColor=#1A1A1A;" parent="1" source="48" target="37" edge="1"><mxGeometry relative="1" as="geometry"/></mxCell><mxCell id="48" value="ScrollingTextView" style="rounded=0;whiteSpace=wrap;html=1;fontFamily=Fira Code;" parent="1" vertex="1"><mxGeometry x="1280" y="300" width="200" height="40" as="geometry"/></mxCell><mxCell id="51" style="edgeStyle=elbowEdgeStyle;rounded=0;orthogonalLoop=1;jettySize=auto;html=1;endArrow=block;endFill=0;strokeWidth=1;fontSize=8;fontColor=#1A1A1A;" parent="1" source="50" target="37" edge="1"><mxGeometry relative="1" as="geometry"/></mxCell><mxCell id="50" value="SingleLineTextInput" style="rounded=0;whiteSpace=wrap;html=1;fontFamily=Fira Code;" parent="1" vertex="1"><mxGeometry x="1280" y="380" width="200" height="40" as="geometry"/></mxCell><mxCell id="53" style="edgeStyle=elbowEdgeStyle;rounded=0;orthogonalLoop=1;jettySize=auto;html=1;endArrow=block;endFill=0;strokeWidth=1;fontSize=8;fontColor=#1A1A1A;" parent="1" source="52" target="37" edge="1"><mxGeometry relative="1" as="geometry"/></mxCell><mxCell id="52" value="RectView" style="rounded=0;whiteSpace=wrap;html=1;fontFamily=Fira Code;" parent="1" vertex="1"><mxGeometry x="1280" y="460" width="200" height="40" as="geometry"/></mxCell><mxCell id="55" value="" style="edgeStyle=elbowEdgeStyle;rounded=0;orthogonalLoop=1;jettySize=auto;html=1;endArrow=block;endFill=0;strokeWidth=1;fontSize=8;fontColor=#1A1A1A;" parent="1" source="54" target="52" edge="1"><mxGeometry relative="1" as="geometry"/></mxCell><mxCell id="54" value="WindowView" style="rounded=0;whiteSpace=wrap;html=1;fontFamily=Fira Code;" parent="1" vertex="1"><mxGeometry x="1600" y="460" width="200" height="40" as="geometry"/></mxCell><mxCell id="57" style="edgeStyle=elbowEdgeStyle;rounded=0;orthogonalLoop=1;jettySize=auto;html=1;endArrow=block;endFill=0;strokeWidth=1;fontSize=8;fontColor=#1A1A1A;" parent="1" source="56" target="37" edge="1"><mxGeometry relative="1" as="geometry"/></mxCell><mxCell id="56" value="LabelView" style="rounded=0;whiteSpace=wrap;html=1;fontFamily=Fira Code;" parent="1" vertex="1"><mxGeometry x="1280" y="540" width="200" height="40" as="geometry"/></mxCell><mxCell id="59" style="edgeStyle=elbowEdgeStyle;rounded=0;orthogonalLoop=1;jettySize=auto;html=1;endArrow=block;endFill=0;strokeWidth=1;fontSize=8;fontColor=#1A1A1A;" parent="1" source="58" target="37" edge="1"><mxGeometry relative="1" as="geometry"/></mxCell><mxCell id="58" value="ButtonView" style="rounded=0;whiteSpace=wrap;html=1;fontFamily=Fira Code;" parent="1" vertex="1"><mxGeometry x="1280" y="620" width="200" height="40" as="geometry"/></mxCell><mxCell id="61" style="edgeStyle=elbowEdgeStyle;rounded=0;orthogonalLoop=1;jettySize=auto;html=1;endArrow=block;endFill=0;strokeWidth=1;fontSize=8;fontColor=#1A1A1A;" parent="1" source="60" target="37" edge="1"><mxGeometry relative="1" as="geometry"/></mxCell><mxCell id="60" value="IntStepperView" style="rounded=0;whiteSpace=wrap;html=1;fontFamily=Fira Code;" parent="1" vertex="1"><mxGeometry x="1280" y="700" width="200" height="40" as="geometry"/></mxCell><mxCell id="63" style="edgeStyle=elbowEdgeStyle;rounded=0;orthogonalLoop=1;jettySize=auto;html=1;endArrow=block;endFill=0;strokeWidth=1;fontSize=8;fontColor=#1A1A1A;" parent="1" source="62" target="58" edge="1"><mxGeometry relative="1" as="geometry"/></mxCell><mxCell id="62" value="CyclingButtonView" style="rounded=0;whiteSpace=wrap;html=1;fontFamily=Fira Code;" parent="1" vertex="1"><mxGeometry x="1600" y="620" width="200" height="40" as="geometry"/></mxCell><mxCell id="66" style="rounded=0;orthogonalLoop=1;jettySize=auto;html=1;sketch=1;fillColor=#60a917;strokeColor=#2D7600;" edge="1" parent="1" source="65" target="4"><mxGeometry relative="1" as="geometry"/></mxCell><mxCell id="67" style="rounded=0;orthogonalLoop=1;jettySize=auto;html=1;sketch=1;fillColor=#60a917;strokeColor=#2D7600;" edge="1" parent="1" source="65" target="2"><mxGeometry relative="1" as="geometry"/></mxCell><mxCell id="65" value="Renderer" style="rounded=0;whiteSpace=wrap;html=1;sketch=1;fontFamily=Architects Daughter;fontSource=https%3A%2F%2Ffonts.googleapis.com%2Fcss%3Ffamily%3DArchitects%2BDaughter;fillColor=#60a917;strokeColor=#2D7600;fontColor=#ffffff;fontStyle=1" vertex="1" parent="1"><mxGeometry x="750" y="470" width="90" height="40" as="geometry"/></mxCell><mxCell id="70" style="rounded=0;sketch=1;orthogonalLoop=1;jettySize=auto;html=1;endArrow=classicThin;endFill=1;fillColor=#f0a30a;strokeColor=#BD7000;" edge="1" parent="1" source="69" target="3"><mxGeometry relative="1" as="geometry"/></mxCell><mxCell id="69" value="distributed among&lt;br&gt;Game.loop" style="rounded=0;whiteSpace=wrap;html=1;sketch=1;fontFamily=Architects Daughter;fontSource=https%3A%2F%2Ffonts.googleapis.com%2Fcss%3Ffamily%3DArchitects%2BDaughter;fillColor=#e3c800;strokeColor=#B09500;fontStyle=1;fontColor=#FFFFFF;labelBorderColor=none;" vertex="1" parent="1"><mxGeometry x="440" y="80" width="120" height="40" as="geometry"/></mxCell><mxCell id="72" value="" style="edgeStyle=none;rounded=0;sketch=1;orthogonalLoop=1;jettySize=auto;html=1;endArrow=classicThin;endFill=1;fontColor=#FFFFFF;fillColor=#60a917;strokeColor=#2D7600;" edge="1" parent="1" source="71" target="26"><mxGeometry relative="1" as="geometry"/></mxCell><mxCell id="71" value="SceneManager" style="rounded=0;whiteSpace=wrap;html=1;sketch=1;fontFamily=Architects Daughter;fontSource=https%3A%2F%2Ffonts.googleapis.com%2Fcss%3Ffamily%3DArchitects%2BDaughter;fillColor=#60a917;strokeColor=#2D7600;fontStyle=1;fontColor=#ffffff;labelBorderColor=none;" vertex="1" parent="1"><mxGeometry x="780" y="310" width="120" height="40" as="geometry"/></mxCell></root></mxGraphModel></diagram></mxfile>